<?xml version="1.0" encoding="UTF-8" standalone="no"?>
<!DOCTYPE svg PUBLIC "-//W3C//DTD SVG 1.1//EN"
 "http://www.w3.org/Graphics/SVG/1.1/DTD/svg11.dtd">
<!-- Generated by graphviz version 2.40.1 (20161225.0304)
 -->
<!-- Title: G Pages: 1 -->
<svg width="591pt" height="488pt"
 viewBox="0.00 0.00 590.50 488.00" xmlns="http://www.w3.org/2000/svg" xmlns:xlink="http://www.w3.org/1999/xlink">
<g id="graph0" class="graph" transform="scale(1 1) rotate(0) translate(4 484)">
<title>G</title>
<polygon fill="#ffffff" stroke="transparent" points="-4,4 -4,-484 586.5,-484 586.5,4 -4,4"/>
<!-- A0 -->
<g id="node1" class="node">
<title>A0</title>
<polygon fill="none" stroke="#000000" points="272.5,-448 272.5,-480 358.5,-480 358.5,-448 272.5,-448"/>
<text text-anchor="start" x="282.3015" y="-461" font-family="Helvetica,sans-Serif" font-size="10.00" fill="#000000">+I:IDrawObject</text>
<polygon fill="none" stroke="#000000" points="272.5,-416 272.5,-448 358.5,-448 358.5,-416 272.5,-416"/>
<text text-anchor="start" x="293.564" y="-429" font-family="Helvetica,sans-Serif" font-size="10.00" fill="#000000">DrawMe()</text>
</g>
<!-- A1 -->
<g id="node2" class="node">
<title>A1</title>
<polygon fill="none" stroke="#000000" points="204.5,-334 204.5,-366 314.5,-366 314.5,-334 204.5,-334"/>
<text text-anchor="start" x="237.404" y="-347" font-family="Helvetica,sans-Serif" font-size="10.00" fill="#000000">+A:Shape</text>
<polygon fill="none" stroke="#000000" points="204.5,-266 204.5,-334 314.5,-334 314.5,-266 204.5,-266"/>
<text text-anchor="start" x="235.46" y="-315" font-family="Helvetica,sans-Serif" font-size="10.00" fill="#000000">+PI:double</text>
<text text-anchor="start" x="237.684" y="-303" font-family="Helvetica,sans-Serif" font-size="10.00" fill="#000000">=x:double</text>
<text text-anchor="start" x="237.684" y="-291" font-family="Helvetica,sans-Serif" font-size="10.00" fill="#000000">=y:double</text>
<text text-anchor="start" x="238.9445" y="-279" font-family="Helvetica,sans-Serif" font-size="10.00" fill="#000000">&#45;myInt:int</text>
<polygon fill="none" stroke="#000000" points="204.5,-222 204.5,-266 314.5,-266 314.5,-222 204.5,-222"/>
<text text-anchor="start" x="222.4075" y="-247" font-family="Helvetica,sans-Serif" font-size="10.00" fill="#000000">+Area():double:v</text>
<text text-anchor="start" x="230.4755" y="-235" font-family="Helvetica,sans-Serif" font-size="10.00" fill="#000000">+DrawMe():a</text>
<polygon fill="none" stroke="#000000" points="204.5,-178 204.5,-222 314.5,-222 314.5,-178 204.5,-178"/>
<text text-anchor="start" x="253.2515" y="-203" font-family="Helvetica,sans-Serif" font-size="10.00" fill="#000000">+()</text>
<text text-anchor="start" x="214.069" y="-191" font-family="Helvetica,sans-Serif" font-size="10.00" fill="#000000">+(x:double,y:double)</text>
</g>
<!-- A0&#45;&gt;A1 -->
<g id="edge1" class="edge">
<title>A0&#45;&gt;A1</title>
<path fill="none" stroke="#000000" d="M302.1254,-405.9654C298.2756,-393.8662 293.913,-380.1553 289.4839,-366.2352"/>
<polygon fill="none" stroke="#000000" points="298.8614,-407.2509 305.2287,-415.7189 305.5319,-405.1284 298.8614,-407.2509"/>
</g>
<!-- A2 -->
<g id="node3" class="node">
<title>A2</title>
<polygon fill="none" stroke="#000000" points="333.5,-272 333.5,-304 410.5,-304 410.5,-272 333.5,-272"/>
<text text-anchor="start" x="356.298" y="-285" font-family="Helvetica,sans-Serif" font-size="10.00" fill="#000000">+Blood</text>
<polygon fill="none" stroke="#000000" points="333.5,-240 333.5,-272 410.5,-272 410.5,-240 333.5,-240"/>
<text text-anchor="start" x="343.255" y="-253" font-family="Helvetica,sans-Serif" font-size="10.00" fill="#000000">+DrawMe():v</text>
</g>
<!-- A0&#45;&gt;A2 -->
<g id="edge2" class="edge">
<title>A0&#45;&gt;A2</title>
<path fill="none" stroke="#000000" d="M328.8714,-405.9756C338.8208,-374.706 352.1967,-332.6674 361.2939,-304.0765"/>
<polygon fill="none" stroke="#000000" points="325.4681,-405.1284 325.7713,-415.7189 332.1386,-407.2509 325.4681,-405.1284"/>
</g>
<!-- A3 -->
<g id="node4" class="node">
<title>A3</title>
<polygon fill="none" stroke="#000000" points=".5,-96 .5,-128 111.5,-128 111.5,-96 .5,-96"/>
<text text-anchor="start" x="40.308" y="-109" font-family="Helvetica,sans-Serif" font-size="10.00" fill="#000000">+Circle</text>
<polygon fill="none" stroke="#000000" points=".5,-76 .5,-96 111.5,-96 111.5,-76 .5,-76"/>
<polygon fill="none" stroke="#000000" points=".5,-32 .5,-76 111.5,-76 111.5,-32 .5,-32"/>
<text text-anchor="start" x="18.628" y="-57" font-family="Helvetica,sans-Serif" font-size="10.00" fill="#000000">+Area():double:o</text>
<text text-anchor="start" x="10.579" y="-45" font-family="Helvetica,sans-Serif" font-size="10.00" fill="#000000">+DrawMe():double:o</text>
<polygon fill="none" stroke="#000000" points=".5,0 .5,-32 111.5,-32 111.5,0 .5,0"/>
<text text-anchor="start" x="10.3" y="-13" font-family="Helvetica,sans-Serif" font-size="10.00" fill="#000000">+(r:double):base(r,0)</text>
</g>
<!-- A1&#45;&gt;A3 -->
<g id="edge3" class="edge">
<title>A1&#45;&gt;A3</title>
<path fill="none" stroke="#000000" stroke-dasharray="5,2" d="M197.0579,-208.3336C169.6341,-180.372 137.6958,-147.8075 111.1039,-120.6941"/>
<polygon fill="#000000" stroke="#000000" points="204.2947,-215.7122 194.0798,-211.7237 200.7936,-212.1425 197.2925,-208.5728 197.2925,-208.5728 197.2925,-208.5728 200.7936,-212.1425 200.5053,-205.4218 204.2947,-215.7122 204.2947,-215.7122"/>
</g>
<!-- A4 -->
<g id="node5" class="node">
<title>A4</title>
<polygon fill="none" stroke="#000000" points="129.5,-96 129.5,-128 240.5,-128 240.5,-96 129.5,-96"/>
<text text-anchor="start" x="165.9635" y="-109" font-family="Helvetica,sans-Serif" font-size="10.00" fill="#000000">+Sphere</text>
<polygon fill="none" stroke="#000000" points="129.5,-76 129.5,-96 240.5,-96 240.5,-76 129.5,-76"/>
<polygon fill="none" stroke="#000000" points="129.5,-32 129.5,-76 240.5,-76 240.5,-32 129.5,-32"/>
<text text-anchor="start" x="147.628" y="-57" font-family="Helvetica,sans-Serif" font-size="10.00" fill="#000000">+Area():double:o</text>
<text text-anchor="start" x="139.579" y="-45" font-family="Helvetica,sans-Serif" font-size="10.00" fill="#000000">+DrawMe():double:o</text>
<polygon fill="none" stroke="#000000" points="129.5,0 129.5,-32 240.5,-32 240.5,0 129.5,0"/>
<text text-anchor="start" x="139.3" y="-13" font-family="Helvetica,sans-Serif" font-size="10.00" fill="#000000">+(r:double):base(r,0)</text>
</g>
<!-- A1&#45;&gt;A4 -->
<g id="edge4" class="edge">
<title>A1&#45;&gt;A4</title>
<path fill="none" stroke="#000000" stroke-dasharray="5,2" d="M222.1013,-168.2809C217.1695,-154.6033 212.2353,-140.9193 207.64,-128.175"/>
<polygon fill="#000000" stroke="#000000" points="225.511,-177.7373 217.8858,-169.8566 223.815,-173.0337 222.119,-168.3302 222.119,-168.3302 222.119,-168.3302 223.815,-173.0337 226.3522,-166.8037 225.511,-177.7373 225.511,-177.7373"/>
</g>
<!-- A5 -->
<g id="node6" class="node">
<title>A5</title>
<polygon fill="none" stroke="#000000" points="258.5,-96 258.5,-128 410.5,-128 410.5,-96 258.5,-96"/>
<text text-anchor="start" x="314.504" y="-109" font-family="Helvetica,sans-Serif" font-size="10.00" fill="#000000">&#45;Cylinder</text>
<polygon fill="none" stroke="#000000" points="258.5,-76 258.5,-96 410.5,-96 410.5,-76 258.5,-76"/>
<polygon fill="none" stroke="#000000" points="258.5,-32 258.5,-76 410.5,-76 410.5,-32 258.5,-32"/>
<text text-anchor="start" x="297.128" y="-57" font-family="Helvetica,sans-Serif" font-size="10.00" fill="#000000">+Area():double:o</text>
<text text-anchor="start" x="289.079" y="-45" font-family="Helvetica,sans-Serif" font-size="10.00" fill="#000000">+DrawMe():double:o</text>
<polygon fill="none" stroke="#000000" points="258.5,0 258.5,-32 410.5,-32 410.5,0 258.5,0"/>
<text text-anchor="start" x="268.2345" y="-13" font-family="Helvetica,sans-Serif" font-size="10.00" fill="#000000">+(r:double,h:double):base(r,h)</text>
</g>
<!-- A1&#45;&gt;A5 -->
<g id="edge5" class="edge">
<title>A1&#45;&gt;A5</title>
<path fill="none" stroke="#000000" stroke-dasharray="5,2" d="M296.8987,-168.2809C301.8305,-154.6033 306.7647,-140.9193 311.36,-128.175"/>
<polygon fill="#000000" stroke="#000000" points="293.489,-177.7373 292.6478,-166.8037 295.185,-173.0337 296.881,-168.3302 296.881,-168.3302 296.881,-168.3302 295.185,-173.0337 301.1142,-169.8566 293.489,-177.7373 293.489,-177.7373"/>
</g>
<!-- A6 -->
<g id="node7" class="node">
<title>A6</title>
<polygon fill="none" stroke="#000000" points="428.5,-96 428.5,-128 582.5,-128 582.5,-96 428.5,-96"/>
<text text-anchor="start" x="481.3295" y="-109" font-family="Helvetica,sans-Serif" font-size="10.00" fill="#000000">&#45;Rectangle</text>
<polygon fill="none" stroke="#000000" points="428.5,-76 428.5,-96 582.5,-96 582.5,-76 428.5,-76"/>
<polygon fill="none" stroke="#000000" points="428.5,-32 428.5,-76 582.5,-76 582.5,-32 428.5,-32"/>
<text text-anchor="start" x="468.6825" y="-57" font-family="Helvetica,sans-Serif" font-size="10.00" fill="#000000">+IsSquare:bool:r</text>
<text text-anchor="start" x="460.079" y="-45" font-family="Helvetica,sans-Serif" font-size="10.00" fill="#000000">+DrawMe():double:o</text>
<polygon fill="none" stroke="#000000" points="428.5,0 428.5,-32 582.5,-32 582.5,0 428.5,0"/>
<text text-anchor="start" x="438.264" y="-13" font-family="Helvetica,sans-Serif" font-size="10.00" fill="#000000">(w:double,h:double):base(w,h)</text>
</g>
<!-- A1&#45;&gt;A6 -->
<g id="edge6" class="edge">
<title>A1&#45;&gt;A6</title>
<path fill="none" stroke="#000000" stroke-dasharray="5,2" d="M321.6397,-180.6033C322.5859,-179.7195 323.5394,-178.8513 324.5,-178 360.2088,-146.3547 379.1287,-153.4304 419.5,-128 422.3345,-126.2145 425.1956,-124.3637 428.0656,-122.4655"/>
<polygon fill="#000000" stroke="#000000" points="314.5327,-187.6617 318.457,-177.422 318.0804,-184.1383 321.628,-180.6149 321.628,-180.6149 321.628,-180.6149 318.0804,-184.1383 324.7991,-183.8078 314.5327,-187.6617 314.5327,-187.6617"/>
</g>
</g>
</svg>
