<!DOCTYPE svg PUBLIC "-//W3C//DTD SVG 1.1//EN" "http://www.w3.org/Graphics/SVG/1.1/DTD/svg11.dtd"[]>
<!-- Generated by graphviz version 2.40.1 (20161225.0304)
 -->
<!-- Title: G Pages: 1 -->
<svg width="708pt" height="108pt" viewBox="0.00 0.00 708.08 107.66" xmlns="http://www.w3.org/2000/svg" xmlns:xlink="http://www.w3.org/1999/xlink">
  <g id="graph0" class="graph" transform="scale(1 1) rotate(0) translate(4 103.6556)">
    <title>G</title>
    <polygon fill="#ffffff" stroke="transparent" points="-4,4 -4,-103.6556 704.078,-103.6556 704.078,4 -4,4" />
    <!-- A0 -->
    <g id="node1" class="node">
      <title>A0</title>
      <polygon fill="none" stroke="#000000" points="113.0375,-51.6556 -.0125,-51.6556 -.0125,-15.6556 113.0375,-15.6556 113.0375,-51.6556" />
      <text text-anchor="middle" x="56.5125" y="-30.6556" font-family="Helvetica,sans-Serif" font-size="10.00" fill="#000000">PeopleWinApp.exe</text>
    </g>
    <!-- A1 -->
    <g id="node2" class="node">
      <title>A1</title>
      <polygon fill="none" stroke="#000000" points="250.7117,-51.6556 162.7953,-51.6556 162.7953,-15.6556 250.7117,-15.6556 250.7117,-51.6556" />
      <text text-anchor="middle" x="206.7535" y="-30.6556" font-family="Helvetica,sans-Serif" font-size="10.00" fill="#000000">PeopleList.dll</text>
    </g>
    <!-- A0&#45;&gt;A1 -->
    <g id="edge1" class="edge">
      <title>A0-&gt;A1</title>
      <path fill="none" stroke="#000000" d="M113.3122,-33.6556C129.7654,-33.6556 147.4673,-33.6556 162.9916,-33.6556" />
    </g>
    <!-- A2 -->
    <g id="node3" class="node">
      <title>A2</title>
      <polygon fill="none" stroke="#000000" points="563.5312,-95.6556 440.3678,-95.6556 440.3678,-59.6556 563.5312,-59.6556 563.5312,-95.6556" />
      <text text-anchor="middle" x="501.9495" y="-74.6556" font-family="Helvetica,sans-Serif" font-size="10.00" fill="#000000">PeopleAppGlobals.dll</text>
    </g>
    <!-- A1&#45;&gt;A2 -->
    <g id="edge5" class="edge">
      <title>A1-&gt;A2</title>
      <path fill="none" stroke="#000000" d="M250.669,-48.2351C266.2427,-52.8892 283.9952,-57.6158 300.482,-60.6556 346.9107,-69.2158 400.1651,-73.4737 440.257,-75.5872" />
    </g>
    <!-- A4 -->
    <g id="node5" class="node">
      <title>A4</title>
      <polygon fill="none" stroke="#000000" points="699.6463,-45.6556 614.1717,-45.6556 614.1717,-9.6556 699.6463,-9.6556 699.6463,-45.6556" />
      <text text-anchor="middle" x="656.909" y="-24.6556" font-family="Helvetica,sans-Serif" font-size="10.00" fill="#000000">PeopleLib.dll</text>
    </g>
    <!-- A1&#45;&gt;A4 -->
    <g id="edge4" class="edge">
      <title>A1-&gt;A4</title>
      <path fill="none" stroke="#000000" d="M250.5412,-18.2902C266.1037,-13.5677 283.8819,-8.9989 300.482,-6.6556 412.958,9.2219 547.0416,-8.3918 614.1658,-19.685" />
    </g>
    <!-- A5 -->
    <g id="node6" class="node">
      <title>A5</title>
      <polygon fill="none" stroke="#000000" points="389.9981,-51.6556 300.6429,-51.6556 300.6429,-15.6556 389.9981,-15.6556 389.9981,-51.6556" />
      <text text-anchor="middle" x="345.3205" y="-30.6556" font-family="Helvetica,sans-Serif" font-size="10.00" fill="#000000">EditPerson.dll</text>
    </g>
    <!-- A1&#45;&gt;A5 -->
    <g id="edge6" class="edge">
      <title>A1-&gt;A5</title>
      <path fill="none" stroke="#000000" d="M250.597,-33.6556C266.4547,-33.6556 284.3772,-33.6556 300.3318,-33.6556" />
    </g>
    <!-- A3 -->
    <g id="node4" class="node">
      <title>A3</title>
      <polygon fill="none" stroke="#000000" points="700.2477,-99.6556 613.5703,-99.6556 613.5703,-63.6556 700.2477,-63.6556 700.2477,-99.6556" />
      <text text-anchor="middle" x="656.909" y="-78.6556" font-family="Helvetica,sans-Serif" font-size="10.00" fill="#000000">CourseLib.dll</text>
    </g>
    <!-- A2&#45;&gt;A3 -->
    <g id="edge2" class="edge">
      <title>A2-&gt;A3</title>
      <path fill="none" stroke="#000000" d="M563.6388,-79.248C580.3502,-79.6793 598.0851,-80.1371 613.5526,-80.5364" />
    </g>
    <!-- A2&#45;&gt;A4 -->
    <g id="edge3" class="edge">
      <title>A2-&gt;A4</title>
      <path fill="none" stroke="#000000" d="M557.8934,-59.6044C576.4455,-53.6183 596.787,-47.0548 614.1811,-41.4424" />
    </g>
    <!-- A5&#45;&gt;A2 -->
    <g id="edge8" class="edge">
      <title>A5-&gt;A2</title>
      <path fill="none" stroke="#000000" d="M390.2041,-46.2642C405.7525,-50.632 423.4652,-55.6079 440.1334,-60.2903" />
    </g>
    <!-- A5&#45;&gt;A4 -->
    <g id="edge7" class="edge">
      <title>A5-&gt;A4</title>
      <path fill="none" stroke="#000000" d="M390.2954,-32.7895C450.1243,-31.6375 555.1611,-29.6148 613.9526,-28.4827" />
    </g>
  </g>
</svg>